<svg width="100" height="100" viewBox="0 0 100 100" fill="none" xmlns="http://www.w3.org/2000/svg">
<path d="M83.334 85.4168H16.6673C12.0715 85.4168 8.33398 81.6793 8.33398 77.0835V22.9168C8.33398 18.321 12.0715 14.5835 16.6673 14.5835H83.334C87.9298 14.5835 91.6673 18.321 91.6673 22.9168V77.0835C91.6673 81.6793 87.9298 85.4168 83.334 85.4168Z" fill="#FFC107"/>
<path d="M70.8333 27.0415H29.2083C24.625 27.0415 20.875 30.7707 20.875 35.3748V62.4998C20.875 66.3748 23.5208 69.6248 27.0833 70.5415V66.0832C25.8542 65.354 25.0417 64.0207 25.0417 62.4998V35.3748C25.0417 33.0832 26.9167 31.2082 29.2083 31.2082H70.8333C73.125 31.2082 75 33.0832 75 35.3748V62.4998C75 64.0415 74.1667 65.3748 72.9167 66.104V70.5623C76.5208 69.6457 79.1667 66.3748 79.1667 62.4998V35.3748C79.1667 30.7707 75.4375 27.0415 70.8333 27.0415Z" fill="#212121"/>
<path d="M34.375 58.3335C36.1 58.3335 37.5 59.7335 37.5 61.4585V71.8752C37.5 73.6002 36.1 75.0002 34.375 75.0002C32.65 75.0002 31.25 73.6002 31.25 71.8752V61.4585C31.25 59.7335 32.65 58.3335 34.375 58.3335Z" fill="#212121"/>
<path d="M44.791 45.8335C46.516 45.8335 47.916 47.2335 47.916 48.9585V71.8752C47.916 73.6002 46.516 75.0002 44.791 75.0002C43.066 75.0002 41.666 73.6002 41.666 71.8752V48.9585C41.666 47.2335 43.066 45.8335 44.791 45.8335Z" fill="#212121"/>
<path d="M55.209 52.0835C56.934 52.0835 58.334 53.4835 58.334 55.2085V71.8752C58.334 73.6002 56.934 75.0002 55.209 75.0002C53.484 75.0002 52.084 73.6002 52.084 71.8752V55.2085C52.084 53.4835 53.484 52.0835 55.209 52.0835Z" fill="#212121"/>
<path d="M65.625 37.5C67.35 37.5 68.75 38.9 68.75 40.625V71.875C68.75 73.6 67.35 75 65.625 75C63.9 75 62.5 73.6 62.5 71.875V40.625C62.5 38.9 63.9 37.5 65.625 37.5Z" fill="#212121"/>
</svg>
