<svg width="100" height="100" viewBox="0 0 100 100" fill="none" xmlns="http://www.w3.org/2000/svg">
<path d="M39.4292 92.3269L5.1875 52.5623C3.89583 51.0623 3.89583 48.8311 5.1875 47.3311L39.4292 7.56855C41.0021 5.74147 43.8125 5.74147 45.3854 7.56855L79.625 47.3311C80.9167 48.8311 80.9167 51.0623 79.625 52.5623L45.3854 92.3269C43.8125 94.154 41.0021 94.154 39.4292 92.3269Z" fill="url(#paint0_linear_2716_698)"/>
<path opacity="0.05" d="M79.6243 52.5625C80.916 51.0625 80.916 48.8312 79.6243 47.3312L46.8618 9.28125L34.7535 22.2292C32.2555 25.0292 32.2847 29.2375 34.8305 32.025L50.8639 49.2437C51.2306 49.6458 51.2306 50.2479 50.8639 50.6479L34.9451 68.0646C32.4139 70.8354 32.4014 75.05 34.9285 77.8792L46.791 90.6896L79.6243 52.5625Z" fill="black"/>
<path opacity="0.07" d="M79.6252 52.5627C80.9168 51.0627 80.9168 48.8314 79.6252 47.3314L47.546 10.0752L35.5314 22.9231C33.3897 25.3231 33.4127 28.9273 35.5939 31.3148L51.6335 48.5419C52.3647 49.3439 52.3668 50.5523 51.6335 51.3523L35.7147 68.7689C33.5439 71.146 33.5314 74.7523 35.6939 77.1752L47.4772 89.9002L79.6252 52.5627Z" fill="black"/>
<path opacity="0.09" d="M79.6247 52.5624C80.9164 51.0624 80.9164 48.8311 79.6247 47.3311L48.2289 10.8687L36.308 23.6145C34.5247 25.6145 34.5414 28.6145 36.3539 30.602L52.4018 47.8374C53.4976 49.0395 53.4976 50.852 52.4018 52.052L36.483 69.4687C34.6747 71.4478 34.658 74.4499 36.456 76.4624L48.158 89.0999L79.6247 52.5624Z" fill="black"/>
<path d="M94.829 47.3852L58.8686 7.62061C57.2227 5.77686 54.3394 5.77686 52.6936 7.62061L37.0852 24.3102C35.6623 25.9039 35.6769 28.3164 37.1165 29.8935L53.1727 47.1373C54.6248 48.7289 54.6248 51.1644 53.1727 52.756L37.254 70.1727C35.8123 71.7498 35.7998 74.1623 37.2227 75.756L52.6165 92.3789C54.2623 94.2227 57.1456 94.2227 58.7915 92.3789L94.8311 52.6144C96.1581 51.1248 96.1581 48.8748 94.829 47.3852Z" fill="url(#paint1_linear_2716_698)"/>
<path opacity="0.61" d="M73.5868 69.7584L58.2035 52.8771C56.7368 51.2667 56.7368 48.7334 58.2035 47.1229L73.5868 30.2417C75.1535 28.5229 77.7743 28.5229 79.341 30.2417L94.7243 47.1229C96.191 48.7334 96.191 51.2667 94.7243 52.8771L79.341 69.7584C77.7743 71.4792 75.1556 71.4792 73.5868 69.7584Z" fill="url(#paint2_linear_2716_698)"/>
<defs>
<linearGradient id="paint0_linear_2716_698" x1="13.9042" y1="21.2998" x2="62.7937" y2="70.4373" gradientUnits="userSpaceOnUse">
<stop stop-color="#9D2F90"/>
<stop offset="0.314" stop-color="#982E8D"/>
<stop offset="0.666" stop-color="#8B2C83"/>
<stop offset="1" stop-color="#772874"/>
</linearGradient>
<linearGradient id="paint1_linear_2716_698" x1="35.0727" y1="24.9894" x2="81.4206" y2="79.7644" gradientUnits="userSpaceOnUse">
<stop stop-color="#E286C5"/>
<stop offset="0.413" stop-color="#E081C3"/>
<stop offset="0.878" stop-color="#DA74BE"/>
<stop offset="1" stop-color="#D86FBC"/>
</linearGradient>
<linearGradient id="paint2_linear_2716_698" x1="57.1035" y1="50" x2="95.8264" y2="50" gradientUnits="userSpaceOnUse">
<stop stop-color="#F2A1C7"/>
<stop offset="0.62" stop-color="#ED9EC8"/>
<stop offset="1" stop-color="#E799CA"/>
</linearGradient>
</defs>
</svg>
