<svg width="100" height="100" viewBox="0 0 100 100" fill="none" xmlns="http://www.w3.org/2000/svg">
<g clip-path="url(#clip0_2715_689)">
<path d="M49.7656 57.1875C65.6007 57.1875 78.4375 44.3507 78.4375 28.5156C78.4375 12.6806 65.6007 -0.15625 49.7656 -0.15625C33.9306 -0.15625 21.0938 12.6806 21.0938 28.5156C21.0938 44.3507 33.9306 57.1875 49.7656 57.1875Z" fill="#036C70"/>
<path d="M73.6719 81.1719C88.2988 81.1719 100.156 69.3144 100.156 54.6875C100.156 40.0606 88.2988 28.2031 73.6719 28.2031C59.045 28.2031 47.1875 40.0606 47.1875 54.6875C47.1875 69.3144 59.045 81.1719 73.6719 81.1719Z" fill="#1A9BA1"/>
<path d="M53.5156 100.078C64.7339 100.078 73.8281 90.9839 73.8281 79.7656C73.8281 68.5473 64.7339 59.4531 53.5156 59.4531C42.2973 59.4531 33.2031 68.5473 33.2031 79.7656C33.2031 90.9839 42.2973 100.078 53.5156 100.078Z" fill="#37C6D0"/>
<path d="M46.4844 75.9375H5.07813C2.34375 75.9375 0.078125 73.6719 0.078125 70.9375V30.1562C0.078125 27.4219 2.34375 25.1562 5.07813 25.1562H46.4844C49.2188 25.1562 51.4844 27.4219 51.4844 30.1562V70.9375C51.4844 73.6719 49.2969 75.9375 46.4844 75.9375Z" fill="#04878B"/>
<path d="M17.4219 59.2969C19.0625 60.2344 21.6406 61.0937 24.2969 61.0937C27.5781 61.0937 29.4531 59.5313 29.4531 57.2656C29.4531 55.1563 28.0469 53.9063 24.4531 52.5781C19.7656 50.9375 16.7188 48.4375 16.7188 44.4531C16.7188 39.8438 20.625 36.4062 26.7969 36.4062C29.8438 36.4062 32.1094 37.1094 33.5938 37.8125L32.3438 41.9531C31.3281 41.4063 29.375 40.625 26.7188 40.625C23.4375 40.625 22.0313 42.3438 22.0313 43.9844C22.0313 46.1719 23.6719 47.1094 27.5 48.5938C32.4219 50.4688 34.7656 52.8906 34.7656 56.875C34.7656 61.4063 31.3281 65.2344 23.9844 65.2344C20.9375 65.2344 17.8125 64.375 16.25 63.5156L17.4219 59.2969Z" fill="white"/>
<path opacity="0.2" d="M51.4844 29.6875C51.4844 29.8438 51.4844 30 51.4844 30.1562V70.9375C51.4844 73.6719 49.2188 75.9375 46.4844 75.9375H33.4375L33.2812 80.3906H50.7813C53.5156 80.3906 55.7813 78.125 55.7813 75.3906V34.6094C55.7031 32.1094 53.9063 30.0781 51.4844 29.6875Z" fill="black"/>
</g>
<defs>
<clipPath id="clip0_2715_689">
<rect width="100" height="100" fill="white"/>
</clipPath>
</defs>
</svg>
